<?xml version="1.0" encoding="UTF-8" standalone="no"?>
<!-- Created with Inkscape (http://www.inkscape.org/) -->

<svg
   xmlns:dc="http://purl.org/dc/elements/1.1/"
   xmlns:cc="http://creativecommons.org/ns#"
   xmlns:rdf="http://www.w3.org/1999/02/22-rdf-syntax-ns#"
   xmlns:svg="http://www.w3.org/2000/svg"
   xmlns="http://www.w3.org/2000/svg"
   xmlns:sodipodi="http://sodipodi.sourceforge.net/DTD/sodipodi-0.dtd"
   xmlns:inkscape="http://www.inkscape.org/namespaces/inkscape"
   width="49.193336"
   height="48.040356"
   id="svg2"
   version="1.1"
   inkscape:version="0.48.2 r9819"
   sodipodi:docname="New document 1">
  <defs
     id="defs4">
    <inkscape:path-effect
       effect="skeletal"
       id="path-effect3788"
       is_visible="true"
       pattern="M 0,5 C 0,2.24 2.24,0 5,0 7.76,0 10,2.24 10,5 10,7.76 7.76,10 5,10 2.24,10 0,7.76 0,5 z"
       copytype="single_stretched"
       prop_scale="1"
       scale_y_rel="false"
       spacing="0"
       normal_offset="0"
       tang_offset="0"
       prop_units="false"
       vertical_pattern="false"
       fuse_tolerance="0" />
    <inkscape:path-effect
       effect="skeletal"
       id="path-effect3784"
       is_visible="true"
       pattern="M 0,5 C 0,2.24 2.24,0 5,0 7.76,0 10,2.24 10,5 10,7.76 7.76,10 5,10 2.24,10 0,7.76 0,5 z"
       copytype="single_stretched"
       prop_scale="0.15"
       scale_y_rel="false"
       spacing="0"
       normal_offset="0"
       tang_offset="0"
       prop_units="false"
       vertical_pattern="false"
       fuse_tolerance="0" />
    <inkscape:path-effect
       effect="skeletal"
       id="path-effect3759"
       is_visible="true"
       pattern="m 69.24982,514.77861 c 0,-2.76 2.24,-5 5,-5 2.76,0 5,2.24 5,5 0,2.76 -2.24,5 -5,5 -2.76,0 -5,-2.24 -5,-5 z"
       copytype="single_stretched"
       prop_scale="0.43"
       scale_y_rel="false"
       spacing="0"
       normal_offset="0"
       tang_offset="0"
       prop_units="false"
       vertical_pattern="false"
       fuse_tolerance="0" />
    <inkscape:path-effect
       effect="skeletal"
       id="path-effect2987"
       is_visible="true"
       pattern="M 0,5 C 0,2.24 2.24,0 5,0 7.76,0 10,2.24 10,5 10,7.76 7.76,10 5,10 2.24,10 0,7.76 0,5 z"
       copytype="single_stretched"
       prop_scale="1"
       scale_y_rel="false"
       spacing="0"
       normal_offset="0"
       tang_offset="0"
       prop_units="false"
       vertical_pattern="false"
       fuse_tolerance="0" />
    <inkscape:path-effect
       effect="skeletal"
       id="path-effect3759-2"
       is_visible="true"
       pattern="m 63.584873,517.37683 c 0,-2.75999 2.24,-4.99999 5,-4.99999 2.76,0 5,2.24 5,4.99999 0,2.76 -2.24,5 -5,5 -2.76,0 -5,-2.24 -5,-5 z"
       copytype="single_stretched"
       prop_scale="0.43"
       scale_y_rel="false"
       spacing="0"
       normal_offset="0"
       tang_offset="0"
       prop_units="false"
       vertical_pattern="false"
       fuse_tolerance="0" />
  </defs>
  <sodipodi:namedview
     id="base"
     pagecolor="#ffffff"
     bordercolor="#666666"
     borderopacity="1.0"
     inkscape:pageopacity="0.0"
     inkscape:pageshadow="2"
     inkscape:zoom="5.6"
     inkscape:cx="34.309919"
     inkscape:cy="23.907001"
     inkscape:document-units="px"
     inkscape:current-layer="layer1"
     showgrid="false"
     fit-margin-top="0"
     fit-margin-left="0"
     fit-margin-right="0"
     fit-margin-bottom="0"
     inkscape:window-width="722"
     inkscape:window-height="456"
     inkscape:window-x="521"
     inkscape:window-y="288"
     inkscape:window-maximized="0" />
  <metadata
     id="metadata7">
    <rdf:RDF>
      <cc:Work
         rdf:about="">
        <dc:format>image/svg+xml</dc:format>
        <dc:type
           rdf:resource="http://purl.org/dc/dcmitype/StillImage" />
        <dc:title></dc:title>
      </cc:Work>
    </rdf:RDF>
  </metadata>
  <g
     inkscape:label="Layer 1"
     inkscape:groupmode="layer"
     id="layer1"
     transform="translate(-292.71297,-411.69212)">
    <g
       id="g3790"
       inkscape:export-filename="/home/malefico/Documentos/proyectos/conectar-linux/vaca/vientito/papelito.png"
       inkscape:export-xdpi="90"
       inkscape:export-ydpi="90">
      <path
         sodipodi:nodetypes="cccscc"
         inkscape:connector-curvature="0"
         inkscape:original-d="m 306.14563,456.85083 c 0,0 -14.56763,-7.01398 -11.79497,-34.82812 8.48697,-1.92125 8.89984,-0.98766 25.0159,-9.02479 1.6183,4.694 8.35403,15.95411 11.28879,18.67278 3.66943,3.39924 4.65008,3.01105 10.3347,2.73388 -3.43333,11.77234 -6.95093,25.42913 -34.84442,22.44625 z"
         inkscape:path-effect="#path-effect3759"
         id="path3757"
         d="m 306.14558,456.85081 c -0.0122,0.0238 -0.0397,0.0401 -0.0815,0.0484 0,0 0,0 0,0 -0.0404,0.008 -0.0945,0.008 -0.16156,2.3e-4 0,0 0,0 0,0 0,0 0,0 0,0 -0.13279,-0.0161 -0.3179,-0.0651 -0.54781,-0.15174 0,0 0,0 0,0 0,0 0,0 0,0 -0.44917,-0.1692 -1.07827,-0.48517 -1.82699,-0.987 0,0 0,0 0,0 -1.4585,-0.97805 -3.40879,-2.69125 -5.24877,-5.33155 0,0 0,0 0,0 -1.96988,-2.97491 -3.74782,-7.0342 -4.71687,-12.06865 -0.48452,-2.51723 -0.77243,-5.27067 -0.83571,-8.19297 -0.0633,-2.92229 0.0985,-6.01349 0.46904,-9.16578 0,0 0,0 0,0 3.38481,-1.01576 6.87966,-1.80892 10.1872,-3.13112 0,0 0,0 0,0 5.32217,-1.41411 10.74606,-3.77079 16.51782,-6.17851 0,0 0,0 0,0 0.96036,1.57354 2.15758,3.16569 3.41072,4.83803 0.35069,0.67999 0.71313,1.35871 1.08613,2.03639 0.63326,1.15052 1.28892,2.28357 1.95912,3.40109 1.05554,1.75816 2.13202,3.45774 3.26247,5.06879 0,0 10e-6,0 10e-6,0 0.86469,1.20727 1.61364,2.3083 2.46816,3.08882 1.30141,1.12091 2.36035,2.14206 3.39993,2.26527 1.81469,0.82503 4.01252,0.93689 6.41934,1.29135 -0.56663,3.56301 -1.16869,7.09011 -2.15874,10.36248 0,10e-6 0,10e-6 0,10e-6 -1.44287,3.23696 -3.41584,6.14006 -5.84488,8.35156 -1.68608,1.50656 -3.51352,2.62715 -5.33736,3.46188 -1.82384,0.83473 -3.64441,1.38373 -5.36641,1.73531 -2.68465,0.54816 -5.11829,0.70641 -7.23771,0.70733 -2.11942,9.2e-4 -3.92584,-0.15751 -5.38548,-0.34631 -1.45963,-0.1888 -2.57362,-0.41024 -3.31954,-0.606 -0.74592,-0.19576 -1.12443,-0.3674 -1.11054,-0.49728 0.0139,-0.12988 0.41985,-0.21283 1.18264,-0.26609 0.76279,-0.0533 1.88355,-0.0755 3.32158,-0.12002 1.43804,-0.0446 3.19456,-0.10925 5.20552,-0.31185 2.01097,-0.20261 4.27729,-0.541 6.69538,-1.23098 1.52689,-0.43673 3.11383,-1.02905 4.65997,-1.83926 1.54613,-0.81021 3.05173,-1.83826 4.36741,-3.15671 1.94082,-1.90103 3.49905,-4.46148 4.71371,-7.37479 0,0 0,0 0,0 1.39309,-2.24289 2.53173,-4.75709 3.78197,-7.42382 -1.47043,0.54351 -3.29328,1.30821 -5.42676,1.31477 -2.34766,-0.57896 -4.11416,-1.92844 -5.42337,-3.22591 -1.27422,-1.19147 -2.23458,-2.50987 -3.08063,-3.72011 -1e-5,0 -1e-5,0 -1e-5,0 -1.2224,-1.71385 -2.36735,-3.4962 -3.46485,-5.31356 -0.69903,-1.15633 -1.38437,-2.33659 -2.04808,-3.54281 -0.39095,-0.7105 -0.77147,-1.42473 -1.14033,-2.14281 -0.27236,-1.29168 -0.55049,-2.67194 -0.65707,-4.19315 0,0 0,0 0,0 -4.67689,2.80305 -9.34641,5.60314 -14.2199,7.43319 0,0 0,0 0,0 -3.22098,0.75511 -6.30919,0.92295 -9.10688,1.30676 0,0 0,0 0,0 -0.22215,2.79344 -0.30138,5.51959 -0.2079,8.09492 0.0935,2.57534 0.35946,5.00007 0.78507,7.2275 0.85123,4.45486 2.36673,8.09885 4.03437,10.90651 0,0 0,0 0,0 1.45254,2.59381 3.00146,4.40329 4.15577,5.58698 0,0 0,0 0,0 0.59288,0.60817 1.07631,1.05317 1.40518,1.37226 0,0 0,0 0,0 0,0 0,0 0,0 0.16836,0.16335 0.29441,0.2928 0.37457,0.39382 0,0 0,0 0,0 0,0 0,0 0,0 0.0409,0.0514 0.0696,0.0952 0.0854,0.13209 0,0 0,0 0,0 0.0164,0.0383 0.0194,0.0693 0.007,0.0931 z"
         style="fill:#000000;fill-rule:evenodd;stroke:none" />
      <path
         sodipodi:nodetypes="ccccsc"
         inkscape:connector-curvature="0"
         id="path3757-6"
         d="m 307.80428,456.67113 c 0,0 -16.34283,-7.24857 -12.90972,-34.37597 8.48388,0.14673 5.66017,-3.19489 23.54399,-8.20156 5.78736,9.33198 6.80011,19.5551 21.4016,21.49858 -1.33786,4.1184 -7.02824,15.65535 -11.98992,19.41696 -4.96167,3.76161 -16.327,4.41613 -20.04595,1.66199 z"
         style="fill:#d9ebef;fill-opacity:1;fill-rule:evenodd;stroke:none" />
      <path
         transform="translate(65.714286,521.6479)"
         inkscape:connector-curvature="0"
         id="path3786"
         d="m 240,-65.892857 c 0,0 11.42857,-5 13.39286,-7.678572 1.96428,-2.678571 3.21428,5.178572 8.21428,6.607143 5,1.428572 -2.32143,4.285714 -9.28571,4.464286 C 245.35714,-62.321429 240,-65.892857 240,-65.892857 z"
         style="fill:#f7f7f7;fill-opacity:1;fill-rule:evenodd;stroke:none" />
      <path
         transform="translate(65.714286,521.6479)"
         inkscape:connector-curvature="0"
         inkscape:original-d="m 239.91123,-65.761441 c 0,0 4.79822,4.798225 13.63706,2.77792 8.83883,-2.020306 9.84899,-2.77792 9.84899,-2.77792 0,0 -9.09138,-3.788072 -9.34391,-8.333758 -0.25254,-4.545687 -6.06092,9.091372 -14.14214,8.333758 z"
         inkscape:path-effect="#path-effect3784"
         id="path3782"
         d="m 239.91132,-65.761354 c 0.007,-0.0075 0.0192,-0.0095 0.0368,-0.0066 0,0 0,0 0,0 0.0162,0.0027 0.037,0.0097 0.0624,0.0207 0.0501,0.02168 0.11815,0.05883 0.20479,0.109489 0,0 0,0 0,0 0,0 0,0 0,0 0.16881,0.09855 0.4072,0.247407 0.72065,0.429303 0,0 0,0 0,0 0,0 0,0 0,0 0.60187,0.349228 1.47881,0.818907 2.6451,1.237312 0,0 0,0 0,0 1.15564,0.416158 2.59117,0.762149 4.26116,0.866234 1.66998,0.104085 3.57703,-0.03669 5.55998,-0.518067 0,0 0,0 0,0 2.51565,-0.614433 5.27069,-1.25666 8.08522,-2.183733 0,0 0,0 0,0 0.53636,0.01078 1.07863,0.02489 1.62632,0.04098 4.3e-4,-4.07e-4 4.3e-4,-4.07e-4 4.3e-4,-4.07e-4 0,10e-7 0,2e-6 0,3e-6 -0.0102,0.01286 -0.0206,0.02557 -0.0307,0.03838 -0.0279,0.0332 -0.0557,0.06633 -0.0835,0.09943 0,10e-7 0,2e-6 0,3e-6 -0.10393,0.123908 -0.20718,0.247487 -0.30988,0.37106 0,0 0,0 0,0 0,10e-7 -10e-6,2e-6 -10e-6,2e-6 0,0 0,0 0,0 -0.35707,-0.160251 -0.71169,-0.328674 -1.06408,-0.503565 -0.53322,-0.26443 -1.06521,-0.545199 -1.59295,-0.844481 -0.55969,-0.317397 -1.10599,-0.6508 -1.63616,-1.000968 -1.21571,-0.798869 -2.37077,-1.706563 -3.32823,-2.786507 -0.90311,-0.985813 -1.62097,-2.252896 -1.71827,-3.663299 -0.0178,-0.204581 -0.0197,-0.354969 -0.0585,-0.433281 -0.0466,-0.0039 0.0267,0.01662 0.20147,0.138668 0.18633,6.53e-4 0.23028,0.0286 0.16576,0.01609 0,0 0,0 0,0 -0.0876,0.03517 -0.19387,0.127329 -0.33241,0.240498 -1.09613,0.940243 -1.97712,2.124644 -2.95339,3.158629 -1.55741,1.65831 -3.12705,3.028176 -4.62448,3.941149 -1.45783,0.83478 -2.86725,1.21371 -3.90051,1.326404 -1.03327,0.112694 -1.70497,-8.3e-4 -1.93997,-0.06173 0,0 0,0 0,0 0.003,-0.03147 0.003,-0.03173 0.003,-0.03173 0,0 2e-5,-2.59e-4 0.003,-0.03173 0,0 0,0 0,0 0.23758,-0.01659 0.88013,0.005 1.82002,-0.231219 0.93989,-0.236211 2.1912,-0.770519 3.50642,-1.747641 1.34814,-0.946311 2.75546,-2.317992 4.22225,-3.990127 0.87963,-1.00985 1.74091,-2.237974 2.95759,-3.352119 0.1524,-0.145272 0.35092,-0.306264 0.61447,-0.449417 0,-10e-7 0,-10e-7 1e-5,-2e-6 0.15593,-0.124453 0.45754,-0.184423 0.88108,-0.107839 0.4093,0.197134 0.63218,0.448916 0.67559,0.676175 0.11969,0.328775 0.15808,0.624228 0.16481,0.861102 0.0335,0.943995 0.64894,1.890473 1.40575,2.766307 0.84317,0.93952 1.90462,1.750936 3.05762,2.51149 0.50166,0.329127 1.02014,0.644175 1.55297,0.946179 0.50242,0.284768 1.01032,0.553865 1.52076,0.809428 0.33711,0.16865 0.67395,0.330516 1.01093,0.483946 0,0 0,0 0,0 0,10e-7 0,3e-6 0,4e-6 0,0 0,0 0,0 0.0922,0.211643 0.18398,0.421988 0.2756,0.630643 0,2e-6 0,3e-6 0,5e-6 0.0245,0.05574 0.0489,0.111363 0.0734,0.166812 0.009,0.02089 0.018,0.04187 0.0268,0.06268 0,10e-7 0,3e-6 0,4e-6 0,0 0,0 0,0 -0.57209,0.452936 -1.13833,0.899257 -1.69848,1.337574 0,0 0,0 0,0 -2.92682,0.930669 -5.74226,1.532855 -8.28737,2.075167 0,0 0,0 0,0 -2.13058,0.45886 -4.1752,0.522626 -5.94924,0.317063 -1.77405,-0.205562 -3.27967,-0.676594 -4.46176,-1.217619 0,0 0,0 0,0 -1.18778,-0.545469 -2.0455,-1.147505 -2.5951,-1.614935 0,0 0,0 0,0 0,0 0,0 0,0 -0.28613,-0.243355 -0.49086,-0.452807 -0.61879,-0.607871 0,0 0,0 0,0 0,0 0,0 0,0 -0.0651,-0.07906 -0.11063,-0.144377 -0.13705,-0.193619 -0.0134,-0.02491 -0.0219,-0.04572 -0.0256,-0.06221 0,0 0,0 0,0 -0.004,-0.01782 -0.002,-0.03067 0.004,-0.03815 z"
         style="fill:#000000;fill-rule:evenodd;stroke:none" />
    </g>
  </g>
</svg>
